<svg xmlns="http://www.w3.org/2000/svg" xmlns:xlink="http://www.w3.org/1999/xlink" viewBox="0 0 363 277.92"><defs><style>.cls-1{fill:#fff;}</style></defs><title>tmh_1</title><g id="Layer_2" data-name="Layer 2"><g id="Layer_1-2" data-name="Layer 1"><path class="cls-1" d="M38.45,3.81,301.66,0c9.66-.14,29.83,2.82,44.89,18.83,2.79,3,18.31,19.47,16.26,43a52,52,0,0,1-9.41,25.35C342,101,254.81,205.87,195.11,255.81c-10.81,9-27.78,22.2-50.54,22.11-28.21-.11-46.27-18.19-50-22.11L8.11,90.12c-11.22-22-10.78-47.68,1.24-65.66A51.1,51.1,0,0,1,38.45,3.81Z"/><image width="1179" height="1233" transform="translate(46.5 11.36) scale(0.19 0.19)" xlink:href="https://scontent.fhan2-4.fna.fbcdn.net/v/t1.15752-9/68535086_661682100999755_2191049958004621312_n.png?_nc_cat=105&_nc_sid=b96e70&_nc_ohc=ZcLpObWn4JYAX981NhX&_nc_ht=scontent.fhan2-4.fna&oh=a7d7c38fdf6ed59220029615165c35ba&oe=5F70B723"/></g></g></svg>